<svg xmlns="http://www.w3.org/2000/svg" width="440" height="280" viewBox="0 0 440 280">
  <!-- Background -->
  <rect width="440" height="280" rx="0" fill="#f8f9fa"/>

  <!-- Green accent bar at top -->
  <rect width="440" height="4" fill="#4CAF50"/>

  <!-- Icon -->
  <g transform="translate(32, 60)">
    <rect width="80" height="80" rx="18" fill="#4CAF50"/>
    <path d="M 32.5 16.25
             C 23.75 16.25, 23.75 22.5, 23.75 27.5
             C 23.75 32.5, 23.75 35, 17.5 37.5
             C 15 38.75, 13.75 39.375, 13.75 40
             C 13.75 40.625, 15 41.25, 17.5 42.5
             C 23.75 45, 23.75 47.5, 23.75 52.5
             C 23.75 57.5, 23.75 63.75, 32.5 63.75"
          fill="none" stroke="white" stroke-width="4.7" stroke-linecap="round" stroke-linejoin="round"/>
    <path d="M 47.5 16.25
             C 56.25 16.25, 56.25 22.5, 56.25 27.5
             C 56.25 32.5, 56.25 35, 62.5 37.5
             C 65 38.75, 66.25 39.375, 66.25 40
             C 66.25 40.625, 65 41.25, 62.5 42.5
             C 56.25 45, 56.25 47.5, 56.25 52.5
             C 56.25 57.5, 56.25 63.75, 47.5 63.75"
          fill="none" stroke="white" stroke-width="4.7" stroke-linecap="round" stroke-linejoin="round"/>
    <circle cx="40" cy="40" r="3.75" fill="white"/>
  </g>

  <!-- Title -->
  <text x="130" y="90" font-family="system-ui, -apple-system, sans-serif" font-size="32" font-weight="700" fill="#1a1a1a">JSON Spot</text>

  <!-- Subtitle -->
  <text x="130" y="120" font-family="system-ui, -apple-system, sans-serif" font-size="15" fill="#666">Format JSON &amp; XML anywhere on the web</text>

  <!-- Feature pills -->
  <g transform="translate(32, 170)">
    <rect x="0" y="0" width="120" height="30" rx="15" fill="#E8F5E9" stroke="#4CAF50" stroke-width="1"/>
    <text x="60" y="20" text-anchor="middle" font-family="system-ui" font-size="12" font-weight="500" fill="#2E7D32">Textareas</text>

    <rect x="132" y="0" width="120" height="30" rx="15" fill="#E8F5E9" stroke="#4CAF50" stroke-width="1"/>
    <text x="192" y="20" text-anchor="middle" font-family="system-ui" font-size="12" font-weight="500" fill="#2E7D32">Code Editors</text>

    <rect x="264" y="0" width="145" height="30" rx="15" fill="#E8F5E9" stroke="#4CAF50" stroke-width="1"/>
    <text x="336" y="20" text-anchor="middle" font-family="system-ui" font-size="12" font-weight="500" fill="#2E7D32">Contenteditable</text>
  </g>

  <!-- Bottom feature list -->
  <g transform="translate(32, 225)" font-family="system-ui" font-size="12" fill="#888">
    <text x="0" y="0">Auto-detect</text>
    <text x="80" y="0" fill="#ccc">|</text>
    <text x="92" y="0">Format &amp; Minify</text>
    <text x="200" y="0" fill="#ccc">|</text>
    <text x="212" y="0">Keyboard Shortcut</text>
    <text x="338" y="0" fill="#ccc">|</text>
    <text x="350" y="0">Picker</text>
  </g>
</svg>
